<?xml version="1.0" standalone="no"?>
<!DOCTYPE svg PUBLIC "-//W3C//DTD SVG 20010904//EN"
 "http://www.w3.org/TR/2001/REC-SVG-20010904/DTD/svg10.dtd">
<svg version="1.0" xmlns="http://www.w3.org/2000/svg"
 width="500.000000pt" height="500.000000pt" viewBox="0 0 500.000000 500.000000"
 preserveAspectRatio="xMidYMid meet">
<metadata>
Created by potrace 1.11, written by Peter Selinger 2001-2013
</metadata>
<g transform="translate(0.000000,500.000000) scale(0.100000,-0.100000)"
fill="#000000" stroke="none">
<path d="M1295 3869 c-429 -58 -805 -344 -983 -747 -59 -132 -83 -249 -89
-422 -6 -173 7 -276 53 -421 105 -334 398 -651 719 -780 309 -123 700 -112
990 30 366 179 638 546 696 940 19 135 7 374 -25 496 -54 199 -151 368 -307
530 -191 198 -396 313 -644 360 -100 20 -317 27 -410 14z m395 -106 c210 -42
378 -132 543 -292 179 -172 283 -356 334 -587 25 -111 24 -358 0 -474 -72
-336 -307 -635 -622 -792 -164 -82 -317 -112 -530 -105 -176 6 -294 32 -429
96 -165 77 -326 211 -446 370 -232 307 -282 760 -126 1122 107 247 360 498
603 599 202 84 454 108 673 63z"/>
<path d="M3080 2650 l0 -1190 50 0 50 0 0 656 c0 361 4 654 8 652 4 -1 289
-295 632 -653 l624 -650 70 -3 70 -3 -24 28 c-14 15 -180 189 -369 388 -190
198 -433 452 -540 565 -108 113 -247 258 -311 323 -88 91 -112 121 -105 132 9
14 146 133 797 698 147 128 267 235 267 240 1 4 -25 7 -56 7 l-58 -1 -500
-434 -500 -434 -3 435 -2 434 -50 0 -50 0 0 -1190z"/>
</g>
</svg>
